<svg xmlns="http://www.w3.org/2000/svg" viewBox="0 0 512 512" fill="none" role="img" aria-label="Pharmeto">
  <rect width="512" height="512" rx="112" fill="#0d9488"/>
  <path
    d="M168 148c0-22.09 17.91-40 40-40h96c22.09 0 40 17.91 40 40v52h52c22.09 0 40 17.91 40 40v96c0 22.09-17.91 40-40 40h-52v52c0 22.09-17.91 40-40 40h-96c-22.09 0-40-17.91-40-40v-52h-52c-22.09 0-40-17.91-40-40v-96c0-22.09 17.91-40 40-40h52v-52z"
    fill="#ffffff"
    opacity="0.18"
  />
  <path
    d="M196 156h120v72c0 13.255 10.745 24 24 24h72v120c0 13.255-10.745 24-24 24H196c-13.255 0-24-10.745-24-24V180c0-13.255 10.745-24 24-24z"
    fill="#ffffff"
  />
  <circle cx="356" cy="356" r="36" fill="#ffffff" opacity="0.92"/>
</svg>
